# xmcd
#
# Track frame offsets:
#	150
#	27710
#	37320
#	55805
#	75550
#	87230
#	100090
#	113560
#	125997
#	142757
#	154140
#	166530
#	182285
#	198255
#	215350
#	234225
#	248340
#	257080
#	263217
#	269950
#	286617
#	299117
#
# Disc length: 4185 seconds
#
# Revision: 1
# Processed by: cddbd v1.5.2PL0 Copyright (c) Steve Scherf et al.
# Submitted via: EasyCDDAExtractor 16.0.6.1
#
DISCID=37105716
DTITLE=Brucelose and Gilson Neto - Ao vivo 1999 (Vol 2)
DYEAR=1900
DGENRE=General Folk
TTITLE0=Te Amo Demais
TTITLE1=Te Amo, Te Quero, Te Adoro
TTITLE2=Sede De Te Amar
TTITLE3=Doce Pecado
TTITLE4=E O Amor
TTITLE5=Asa Partida
TTITLE6=Pinote Do Garrote
TTITLE7=Vaqueiro Acelerado
TTITLE8=Foi No Baile
TTITLE9=Coração De Vaqueiro
TTITLE10=Luz
TTITLE11=Ardendo De Paixão
TTITLE12=Se Uma Lágrima Rolar
TTITLE13=Pra Sempre Se Amar
TTITLE14=Uma Noite De Amor
TTITLE15=Falta Um Boi Vaqueiro
TTITLE16=Aboio Nordestino
TTITLE17=Festa De Gado
TTITLE18=Sanfoneiro Voador
TTITLE19=Sorriso Largo
TTITLE20=Solidão
TTITLE21=Só Com Você
EXTD=Artist: Banda Brucelose\nAlbum: Ao Vivo CD2\nGênre: Forró\nMy Name Felix 
EXTD=Torres
EXTT0=
EXTT1=
EXTT2=
EXTT3=
EXTT4=
EXTT5=
EXTT6=
EXTT7=
EXTT8=
EXTT9=
EXTT10=
EXTT11=
EXTT12=
EXTT13=
EXTT14=
EXTT15=
EXTT16=
EXTT17=
EXTT18=
EXTT19=
EXTT20=
EXTT21=
PLAYORDER=
